<svg width="11" height="11" viewBox="0 0 11 11" fill="none" xmlns="http://www.w3.org/2000/svg">
	<path
		d="M4.65432 0.0132981C2.0878 0.0132981 0 2.10109 0 4.66762C0 7.23415 2.0878 9.32194 4.65432 9.32194C5.43891 9.32194 6.2102 9.13577 6.8618 8.77672C6.914 8.83953 6.97187 8.8974 7.03468 8.9496L8.36448 10.2794C8.48727 10.4176 8.63701 10.5292 8.80449 10.6074C8.97198 10.6856 9.15369 10.7287 9.33845 10.7342C9.52322 10.7396 9.70714 10.7072 9.87894 10.639C10.0507 10.5708 10.2068 10.4682 10.3375 10.3375C10.4682 10.2068 10.5708 10.0507 10.639 9.87894C10.7072 9.70714 10.7396 9.52322 10.7342 9.33845C10.7287 9.15369 10.6856 8.97198 10.6074 8.8045C10.5292 8.63701 10.4176 8.48727 10.2794 8.36448L8.9496 7.03468C8.88482 6.96988 8.81352 6.91194 8.73683 6.8618C9.09588 6.2102 9.32194 5.45221 9.32194 4.65432C9.32194 2.0878 7.23415 0 4.66762 0L4.65432 0.0132981ZM4.65432 1.3431C6.50275 1.3431 7.97884 2.81919 7.97884 4.66762C7.97884 5.54529 7.65969 6.35647 7.10117 6.95489C7.08787 6.96819 7.07457 6.98148 7.06127 6.99478C6.99846 7.04698 6.94059 7.10485 6.8884 7.16766C6.30328 7.69958 5.5054 8.00543 4.64102 8.00543C2.79259 8.00543 1.31651 6.52935 1.31651 4.68092C1.31651 2.83249 2.79259 1.3564 4.64102 1.3564L4.65432 1.3431Z"
		fill="black" fill-opacity="0.5" />
</svg>